<svg width="100" height="20"  viewBox="0 0 285 27" fill="none" xmlns="http://www.w3.org/2000/svg">
<path d="M3.55869 26C2.57469 26 1.81869 25.736 1.29069 25.208C0.762687 24.68 0.498687 23.924 0.498687 22.94V3.68C0.498687 2.696 0.762687 1.94 1.29069 1.412C1.81869 0.883999 2.57469 0.619998 3.55869 0.619998H16.0147C17.0467 0.619998 17.8267 0.835999 18.3547 1.268C18.8827 1.7 19.1467 2.324 19.1467 3.14C19.1467 4.868 18.1027 5.732 16.0147 5.732H6.94269V10.556H15.2947C17.3827 10.556 18.4267 11.408 18.4267 13.112C18.4267 13.928 18.1627 14.552 17.6347 14.984C17.1067 15.416 16.3267 15.632 15.2947 15.632H6.94269V20.888H16.0147C18.1027 20.888 19.1467 21.752 19.1467 23.48C19.1467 24.296 18.8827 24.92 18.3547 25.352C17.8267 25.784 17.0467 26 16.0147 26H3.55869ZM33.6876 26.324C31.7676 26.324 29.9796 26.12 28.3236 25.712C26.6916 25.28 25.3476 24.692 24.2916 23.948C23.8836 23.636 23.5836 23.312 23.3916 22.976C23.2236 22.64 23.1396 22.208 23.1396 21.68C23.1396 20.96 23.3556 20.336 23.7876 19.808C24.2196 19.28 24.7236 19.016 25.2996 19.016C25.6116 19.016 25.9116 19.064 26.1996 19.16C26.4876 19.256 26.8476 19.436 27.2796 19.7C28.2636 20.252 29.2356 20.648 30.1956 20.888C31.1796 21.128 32.2836 21.248 33.5076 21.248C34.9236 21.248 35.9916 21.044 36.7116 20.636C37.4556 20.204 37.8276 19.58 37.8276 18.764C37.8276 18.212 37.4796 17.744 36.7836 17.36C36.1116 16.952 34.8156 16.556 32.8956 16.172C30.5196 15.668 28.6596 15.068 27.3156 14.372C25.9716 13.676 25.0236 12.86 24.4716 11.924C23.9436 10.964 23.6796 9.812 23.6796 8.468C23.6796 6.932 24.1356 5.54 25.0476 4.292C25.9596 3.044 27.2076 2.072 28.7916 1.376C30.3996 0.655999 32.1996 0.295998 34.1916 0.295998C35.9436 0.295998 37.5036 0.487999 38.8716 0.872C40.2396 1.256 41.4876 1.856 42.6156 2.672C43.0476 2.984 43.3476 3.32 43.5156 3.68C43.7076 4.016 43.8036 4.436 43.8036 4.94C43.8036 5.66 43.5876 6.284 43.1556 6.812C42.7476 7.34 42.2556 7.604 41.6796 7.604C41.3676 7.604 41.0796 7.568 40.8156 7.496C40.5516 7.4 40.1796 7.208 39.6996 6.92C39.5796 6.848 39.2316 6.668 38.6556 6.38C38.1036 6.068 37.4436 5.828 36.6756 5.66C35.9316 5.468 35.1156 5.372 34.2276 5.372C33.0036 5.372 32.0196 5.612 31.2756 6.092C30.5316 6.548 30.1596 7.16 30.1596 7.928C30.1596 8.384 30.2916 8.756 30.5556 9.044C30.8196 9.332 31.3116 9.62 32.0316 9.908C32.7516 10.172 33.8196 10.448 35.2356 10.736C37.5396 11.24 39.3516 11.852 40.6716 12.572C41.9916 13.268 42.9276 14.084 43.4796 15.02C44.0316 15.956 44.3076 17.06 44.3076 18.332C44.3076 19.916 43.8636 21.32 42.9756 22.544C42.0876 23.744 40.8396 24.68 39.2316 25.352C37.6476 26 35.7996 26.324 33.6876 26.324ZM53.8498 26.216C52.8418 26.216 52.0378 25.928 51.4378 25.352C50.8618 24.752 50.5738 23.948 50.5738 22.94V3.68C50.5738 2.696 50.8378 1.94 51.3658 1.412C51.8938 0.883999 52.6498 0.619998 53.6338 0.619998H62.8498C65.6578 0.619998 67.8418 1.34 69.4018 2.78C70.9618 4.196 71.7418 6.176 71.7418 8.72C71.7418 11.24 70.9498 13.22 69.3658 14.66C67.8058 16.1 65.6338 16.82 62.8498 16.82H57.1978V22.94C57.1978 23.948 56.8978 24.752 56.2978 25.352C55.6978 25.928 54.8818 26.216 53.8498 26.216ZM61.9498 11.852C63.1738 11.852 64.0738 11.6 64.6498 11.096C65.2498 10.592 65.5498 9.812 65.5498 8.756C65.5498 6.668 64.3498 5.624 61.9498 5.624H57.1978V11.852H61.9498ZM89.1656 26.324C86.5736 26.324 84.3176 25.796 82.3976 24.74C80.5016 23.66 79.0376 22.148 78.0056 20.204C76.9736 18.236 76.4576 15.932 76.4576 13.292C76.4576 10.652 76.9736 8.36 78.0056 6.416C79.0376 4.448 80.5016 2.936 82.3976 1.88C84.3176 0.823999 86.5736 0.295998 89.1656 0.295998C91.7576 0.295998 94.0016 0.823999 95.8976 1.88C97.8176 2.936 99.2816 4.448 100.29 6.416C101.322 8.36 101.838 10.652 101.838 13.292C101.838 15.932 101.322 18.236 100.29 20.204C99.2576 22.148 97.7816 23.66 95.8616 24.74C93.9656 25.796 91.7336 26.324 89.1656 26.324ZM89.1656 21.248C91.0856 21.248 92.5856 20.576 93.6656 19.232C94.7456 17.864 95.2856 15.884 95.2856 13.292C95.2856 10.7 94.7336 8.732 93.6296 7.388C92.5496 6.044 91.0616 5.372 89.1656 5.372C87.2456 5.372 85.7456 6.044 84.6656 7.388C83.5856 8.708 83.0456 10.676 83.0456 13.292C83.0456 15.908 83.5856 17.888 84.6656 19.232C85.7456 20.576 87.2456 21.248 89.1656 21.248ZM129.626 21.788C130.058 22.436 130.274 23.048 130.274 23.624C130.274 24.392 129.95 25.04 129.302 25.568C128.678 26.072 127.946 26.324 127.106 26.324C126.53 26.324 125.99 26.192 125.486 25.928C124.982 25.664 124.55 25.268 124.19 24.74L119.51 17.9C119.174 17.42 118.814 17.072 118.43 16.856C118.07 16.616 117.638 16.496 117.134 16.496H114.794V22.94C114.794 23.948 114.506 24.752 113.93 25.352C113.354 25.928 112.562 26.216 111.554 26.216C110.546 26.216 109.742 25.928 109.142 25.352C108.566 24.752 108.278 23.948 108.278 22.94V3.68C108.278 2.696 108.542 1.94 109.07 1.412C109.598 0.883999 110.354 0.619998 111.338 0.619998H120.374C123.446 0.619998 125.75 1.292 127.286 2.636C128.846 3.956 129.626 5.876 129.626 8.396C129.626 10.316 129.098 11.948 128.042 13.292C126.986 14.612 125.498 15.5 123.578 15.956C124.37 16.076 125.054 16.34 125.63 16.748C126.23 17.156 126.818 17.768 127.394 18.584L129.626 21.788ZM119.33 11.528C120.794 11.528 121.838 11.3 122.462 10.844C123.11 10.388 123.434 9.644 123.434 8.612C123.434 7.556 123.11 6.8 122.462 6.344C121.838 5.864 120.794 5.624 119.33 5.624H114.722V11.528H119.33ZM144.62 26.18C143.612 26.18 142.796 25.892 142.172 25.316C141.572 24.716 141.272 23.924 141.272 22.94V5.984H136.196C135.14 5.984 134.348 5.768 133.82 5.336C133.316 4.88 133.064 4.196 133.064 3.284C133.064 2.372 133.316 1.7 133.82 1.268C134.348 0.835999 135.14 0.619998 136.196 0.619998H153.044C154.1 0.619998 154.88 0.835999 155.384 1.268C155.912 1.7 156.176 2.372 156.176 3.284C156.176 4.196 155.912 4.88 155.384 5.336C154.88 5.768 154.1 5.984 153.044 5.984H147.968V22.94C147.968 23.924 147.656 24.716 147.032 25.316C146.432 25.892 145.628 26.18 144.62 26.18Z" fill="black"/>
<path d="M176.911 26.216C175.927 26.216 175.135 25.916 174.535 25.316C173.935 24.716 173.635 23.924 173.635 22.94V3.68C173.635 2.696 173.899 1.94 174.427 1.412C174.955 0.883999 175.711 0.619998 176.695 0.619998H188.791C189.871 0.619998 190.663 0.835999 191.167 1.268C191.671 1.676 191.923 2.336 191.923 3.248C191.923 4.136 191.659 4.784 191.131 5.192C190.627 5.6 189.847 5.804 188.791 5.804H180.151V10.484H188.071C189.127 10.484 189.907 10.7 190.411 11.132C190.939 11.564 191.203 12.224 191.203 13.112C191.203 14 190.939 14.648 190.411 15.056C189.907 15.464 189.127 15.668 188.071 15.668H180.151V22.94C180.151 23.948 179.851 24.752 179.251 25.352C178.675 25.928 177.895 26.216 176.911 26.216ZM200.243 26.216C199.235 26.216 198.431 25.928 197.831 25.352C197.255 24.752 196.967 23.948 196.967 22.94V3.68C196.967 2.696 197.255 1.916 197.831 1.34C198.431 0.739998 199.235 0.439999 200.243 0.439999C201.275 0.439999 202.091 0.739998 202.691 1.34C203.291 1.916 203.591 2.696 203.591 3.68V22.94C203.591 23.948 203.291 24.752 202.691 25.352C202.091 25.928 201.275 26.216 200.243 26.216ZM232.05 21.788C232.482 22.436 232.698 23.048 232.698 23.624C232.698 24.392 232.374 25.04 231.726 25.568C231.102 26.072 230.37 26.324 229.53 26.324C228.954 26.324 228.414 26.192 227.91 25.928C227.406 25.664 226.974 25.268 226.614 24.74L221.934 17.9C221.598 17.42 221.238 17.072 220.854 16.856C220.494 16.616 220.062 16.496 219.558 16.496H217.218V22.94C217.218 23.948 216.93 24.752 216.354 25.352C215.778 25.928 214.986 26.216 213.978 26.216C212.97 26.216 212.166 25.928 211.566 25.352C210.99 24.752 210.702 23.948 210.702 22.94V3.68C210.702 2.696 210.966 1.94 211.494 1.412C212.022 0.883999 212.778 0.619998 213.762 0.619998H222.798C225.87 0.619998 228.174 1.292 229.71 2.636C231.27 3.956 232.05 5.876 232.05 8.396C232.05 10.316 231.522 11.948 230.466 13.292C229.41 14.612 227.922 15.5 226.002 15.956C226.794 16.076 227.478 16.34 228.054 16.748C228.654 17.156 229.242 17.768 229.818 18.584L232.05 21.788ZM221.754 11.528C223.218 11.528 224.262 11.3 224.886 10.844C225.534 10.388 225.858 9.644 225.858 8.612C225.858 7.556 225.534 6.8 224.886 6.344C224.262 5.864 223.218 5.624 221.754 5.624H217.146V11.528H221.754ZM248.004 26.324C246.084 26.324 244.296 26.12 242.64 25.712C241.008 25.28 239.664 24.692 238.608 23.948C238.2 23.636 237.9 23.312 237.708 22.976C237.54 22.64 237.456 22.208 237.456 21.68C237.456 20.96 237.672 20.336 238.104 19.808C238.536 19.28 239.04 19.016 239.616 19.016C239.928 19.016 240.228 19.064 240.516 19.16C240.804 19.256 241.164 19.436 241.596 19.7C242.58 20.252 243.552 20.648 244.512 20.888C245.496 21.128 246.6 21.248 247.824 21.248C249.24 21.248 250.308 21.044 251.028 20.636C251.772 20.204 252.144 19.58 252.144 18.764C252.144 18.212 251.796 17.744 251.1 17.36C250.428 16.952 249.132 16.556 247.212 16.172C244.836 15.668 242.976 15.068 241.632 14.372C240.288 13.676 239.34 12.86 238.788 11.924C238.26 10.964 237.996 9.812 237.996 8.468C237.996 6.932 238.452 5.54 239.364 4.292C240.276 3.044 241.524 2.072 243.108 1.376C244.716 0.655999 246.516 0.295998 248.508 0.295998C250.26 0.295998 251.82 0.487999 253.188 0.872C254.556 1.256 255.804 1.856 256.932 2.672C257.364 2.984 257.664 3.32 257.832 3.68C258.024 4.016 258.12 4.436 258.12 4.94C258.12 5.66 257.904 6.284 257.472 6.812C257.064 7.34 256.572 7.604 255.996 7.604C255.684 7.604 255.396 7.568 255.132 7.496C254.868 7.4 254.496 7.208 254.016 6.92C253.896 6.848 253.548 6.668 252.972 6.38C252.42 6.068 251.76 5.828 250.992 5.66C250.248 5.468 249.432 5.372 248.544 5.372C247.32 5.372 246.336 5.612 245.592 6.092C244.848 6.548 244.476 7.16 244.476 7.928C244.476 8.384 244.608 8.756 244.872 9.044C245.136 9.332 245.628 9.62 246.348 9.908C247.068 10.172 248.136 10.448 249.552 10.736C251.856 11.24 253.668 11.852 254.988 12.572C256.308 13.268 257.244 14.084 257.796 15.02C258.348 15.956 258.624 17.06 258.624 18.332C258.624 19.916 258.18 21.32 257.292 22.544C256.404 23.744 255.156 24.68 253.548 25.352C251.964 26 250.116 26.324 248.004 26.324ZM273.435 26.18C272.427 26.18 271.611 25.892 270.987 25.316C270.387 24.716 270.087 23.924 270.087 22.94V5.984H265.011C263.955 5.984 263.163 5.768 262.635 5.336C262.131 4.88 261.879 4.196 261.879 3.284C261.879 2.372 262.131 1.7 262.635 1.268C263.163 0.835999 263.955 0.619998 265.011 0.619998H281.859C282.915 0.619998 283.695 0.835999 284.199 1.268C284.727 1.7 284.991 2.372 284.991 3.284C284.991 4.196 284.727 4.88 284.199 5.336C283.695 5.768 282.915 5.984 281.859 5.984H276.783V22.94C276.783 23.924 276.471 24.716 275.847 25.316C275.247 25.892 274.443 26.18 273.435 26.18Z" fill="#43702C"/>
</svg>
